<svg xmlns="http://www.w3.org/2000/svg" xmlns:osb="http://www.openswatchbook.org/uri/2009/osb" xmlns:svg="http://www.w3.org/2000/svg" style="enable-background:new" id="svg7384" width="16" height="16" version="1.1"><metadata id="metadata90"/><title id="title8473">Moka Symbolic Icon Theme</title><defs id="defs7386"><linearGradient id="linearGradient5606" osb:paint="solid"><stop style="stop-color:#000;stop-opacity:1" id="stop5608" offset="0"/></linearGradient><filter style="color-interpolation-filters:sRGB" id="filter7554"><feBlend id="feBlend7556" in2="BackgroundImage" mode="darken"/></filter></defs><path style="display:block;overflow:visible;visibility:visible;fill:#bebebe;fill-opacity:1;fill-rule:nonzero;stroke:none;stroke-width:1.00000012;stroke-linecap:round;stroke-linejoin:round;stroke-miterlimit:4;stroke-dasharray:none;stroke-dashoffset:0;stroke-opacity:1;marker:none;enable-background:new" id="path15651-4" d="M 7.84375 0 C 4.787452 2.1762286 -5.9211895e-16 3.5117187 0 3.5117188 C 1.238882 13.560496 8 16 8 16 C 8 16 8.6676399 15.709019 9.5839844 15.078125 A 4 4 0 0 1 9.0039062 13.146484 C 8.4173276 13.534458 8 13.714844 8 13.714844 C 8 13.714844 3.1700703 11.972625 2.2851562 4.7949219 C 2.2851562 4.7949219 5.707555 3.839602 7.890625 2.2851562 C 9.586705 3.2607677 13.714844 4.6894531 13.714844 4.6894531 C 13.481649 6.443911 13.022414 7.8740165 12.462891 9.0410156 A 4 4 0 0 1 14.34375 9.2363281 C 15.081191 7.6418962 15.68759 5.7156681 16 3.3652344 C 16 3.3652344 10.218259 1.3658515 7.84375 0 z"/><path id="path4-7-9" d="m 16,13.001732 a 3,3 0 0 1 -5.999999,0 3,3 0 1 1 5.999999,0 z" class="warning" overflow="visible" style="color:#bebebe;overflow:visible;isolation:auto;mix-blend-mode:normal;fill:#f57900;fill-opacity:1;stroke-width:1.19999981;marker:none"/><path style="display:block;overflow:visible;visibility:visible;opacity:.35;fill:#bebebe;fill-opacity:1;fill-rule:nonzero;stroke:none;stroke-width:1.00000012;stroke-linecap:round;stroke-linejoin:round;stroke-miterlimit:4;stroke-dasharray:none;stroke-dashoffset:0;stroke-opacity:1;marker:none;enable-background:new" id="path15651-4-7" d="M 7.9121094 3.5 L 7.9121094 12.457031 C 7.9217123 12.46075 8 12.5 8 12.5 C 8 12.5 8.5131347 12.301035 9.1953125 11.769531 A 4 4 0 0 1 11.189453 9.4335938 C 11.773848 8.4179641 12.273085 7.1000149 12.5 5.3925781 C 12.5 5.3925781 9.2475915 4.2682914 7.9121094 3.5 z M 5.3710938 10.361328 C 5.4724455 10.493646 5.5735199 10.622489 5.6757812 10.740234 C 5.5736985 10.623033 5.4724421 10.493547 5.3710938 10.361328 z M 7.3652344 12.177734 C 7.4084934 12.203574 7.4114979 12.202259 7.4511719 12.224609 C 7.4227079 12.208939 7.3958304 12.195344 7.3652344 12.177734 z"/><path style="display:block;overflow:visible;visibility:visible;opacity:1;fill:#bebebe;fill-opacity:1;fill-rule:nonzero;stroke:none;stroke-width:1.00000012;stroke-linecap:round;stroke-linejoin:round;stroke-miterlimit:4;stroke-dasharray:none;stroke-dashoffset:0;stroke-opacity:1;marker:none;enable-background:new" id="path15651-4-7-3" d="M 7.912109,3.4995234 C 6.1931764,4.7236521 3.5,5.4760859 3.5,5.4760859 4.171602,10.924305 7.6559176,12.357343 7.912109,12.456555 Z"/></svg>