<svg xmlns="http://www.w3.org/2000/svg" xmlns:osb="http://www.openswatchbook.org/uri/2009/osb" xmlns:svg="http://www.w3.org/2000/svg" style="enable-background:new" id="svg7384" width="16" height="16" version="1.1"><metadata id="metadata90"/><title id="title8473">Moka Symbolic Icon Theme</title><defs id="defs7386"><linearGradient id="linearGradient5606" osb:paint="solid"><stop style="stop-color:#000;stop-opacity:1" id="stop5608" offset="0"/></linearGradient><filter style="color-interpolation-filters:sRGB" id="filter7554"><feBlend id="feBlend7556" in2="BackgroundImage" mode="darken"/></filter></defs><path id="path15651-4-7" d="M 7.912903,3.5 C 6.1939704,4.7241287 3.5,5.4756093 3.5,5.4756093 4.1967763,11.128045 7.9999991,12.5 7.9999991,12.5 c 0,0 3.7451569,-1.426828 4.5000009,-7.1067083 0,0 -3.2516149,-1.1250003 -4.587097,-1.8932917 z" style="display:block;overflow:visible;visibility:visible;opacity:1;fill:#bebebe;fill-opacity:1;fill-rule:nonzero;stroke:none;stroke-width:1.00000012;stroke-linecap:round;stroke-linejoin:round;stroke-miterlimit:4;stroke-dasharray:none;stroke-dashoffset:0;stroke-opacity:1;marker:none;enable-background:new"/><path style="display:block;overflow:visible;visibility:visible;fill:#bebebe;fill-opacity:1;fill-rule:nonzero;stroke:none;stroke-width:1.00000012;stroke-linecap:round;stroke-linejoin:round;stroke-miterlimit:4;stroke-dasharray:none;stroke-dashoffset:0;stroke-opacity:1;marker:none;enable-background:new" id="path15651-4" d="M 7.844483,2e-7 C 4.788185,2.1762288 0,3.5111609 0,3.5111609 1.238882,13.559938 8,16 8,16 c 0,0 6.657874,-2.536363 8,-12.6339284 0,0 -5.781008,-2.0002199 -8.155517,-3.3660714 z m 0.04574,2.2857143 c 1.69608,0.9756114 5.825041,2.4040178 5.825041,2.4040178 -0.95866,7.2125377 -5.715265,9.0245537 -5.715265,9.0245537 0,0 -4.830352,-1.74194 -5.715266,-8.9196429 0,0 3.42242,-0.9544829 5.60549,-2.5089286 z"/></svg>