<svg xmlns="http://www.w3.org/2000/svg" xmlns:svg="http://www.w3.org/2000/svg" xmlns:xlink="http://www.w3.org/1999/xlink" id="svg7387" width="96" height="96" version="1.1"><defs id="defs7389"><linearGradient id="linearGradient5185"><stop style="stop-color:#000;stop-opacity:1" id="stop5187" offset="0"/><stop style="stop-color:#000;stop-opacity:0" id="stop5189" offset="1"/></linearGradient><linearGradient id="linearGradient5177"><stop style="stop-color:#000;stop-opacity:1" id="stop5179" offset="0"/><stop style="stop-color:#000;stop-opacity:0" id="stop5181" offset="1"/></linearGradient><radialGradient id="radialGradient3213" cx="27.577" cy="15.048" r="3.834" fx="27.577" fy="15.048" gradientTransform="matrix(1.341804,0,0,1.341804,-9.425986,-5.222852)" gradientUnits="userSpaceOnUse" xlink:href="#linearGradient11494"/><linearGradient id="linearGradient11494"><stop id="stop11496" offset="0" style="stop-color:#ef2929;stop-opacity:1"/><stop id="stop11498" offset="1" style="stop-color:#ef2929;stop-opacity:0"/></linearGradient><radialGradient id="radialGradient3211" cx="27.577" cy="15.259" r="3.834" fx="27.577" fy="15.259" gradientTransform="matrix(1.478479,0,0,1.478479,-13.1951,-7.329062)" gradientUnits="userSpaceOnUse" xlink:href="#linearGradient11494"/><linearGradient id="linearGradient2660"><stop style="stop-color:#edeeec;stop-opacity:1" id="stop2662" offset="0"/><stop style="stop-color:#babdb6;stop-opacity:1" id="stop2664" offset="1"/></linearGradient><radialGradient id="radialGradient3209" cx="17.62" cy="21.611" r="8" fx="17.62" fy="21.611" gradientTransform="matrix(4.072994,0,0,2.874492,-48.88488,-43.21542)" gradientUnits="userSpaceOnUse" xlink:href="#linearGradient2660"/><linearGradient id="linearGradient15653"><stop style="stop-color:#f0f1ee;stop-opacity:1" id="stop15655" offset="0"/><stop style="stop-color:#d5d9d1;stop-opacity:1" id="stop15657" offset="1"/></linearGradient><radialGradient id="radialGradient3207" cx="22.75" cy="10.25" r="19.875" fx="22.75" fy="10.25" gradientTransform="matrix(1.616548,0,0,1.708051,-14.02647,-8.007523)" gradientUnits="userSpaceOnUse" xlink:href="#linearGradient15653"/><linearGradient id="linearGradient15679"><stop style="stop-color:#000;stop-opacity:1" id="stop15681" offset="0"/><stop style="stop-color:#000;stop-opacity:0" id="stop15683" offset="1"/></linearGradient><radialGradient id="radialGradient15685" cx="23.313" cy="40.938" r="17.188" fx="23.313" fy="40.938" gradientTransform="matrix(1,0,0,0.316364,0,27.98636)" gradientUnits="userSpaceOnUse" xlink:href="#linearGradient15679"/><linearGradient id="linearGradient5341" x1="8.688" x2="52.123" y1="25.266" y2="25.266" gradientUnits="userSpaceOnUse" xlink:href="#linearGradient5335"/><linearGradient id="linearGradient8174" x1="49.412" x2="11.881" y1="37.904" y2="19.776" gradientUnits="userSpaceOnUse" xlink:href="#linearGradient8152"/><linearGradient id="linearGradient8158" x1="49.412" x2="11.881" y1="37.904" y2="19.776" gradientUnits="userSpaceOnUse" xlink:href="#linearGradient8152"/><linearGradient id="linearGradient2831"><stop id="stop2833" offset="0" style="stop-color:#3465a4;stop-opacity:1"/><stop style="stop-color:#5b86be;stop-opacity:1" id="stop2855" offset=".333"/><stop id="stop2835" offset="1" style="stop-color:#83a8d8;stop-opacity:0"/></linearGradient><linearGradient id="linearGradient3207"><stop id="stop3209" offset="0" style="stop-color:#eeeeec;stop-opacity:.47058824"/><stop id="stop3211" offset="1" style="stop-color:#eeeeec;stop-opacity:0"/></linearGradient><linearGradient id="linearGradient8152"><stop id="stop8154" offset="0" style="stop-color:#3465a4;stop-opacity:1"/><stop style="stop-color:#4f7eba;stop-opacity:1" id="stop3174" offset=".5"/><stop id="stop8156" offset="1" style="stop-color:#729fcf;stop-opacity:1"/></linearGradient><linearGradient id="linearGradient5313"><stop style="stop-color:#99b8df;stop-opacity:1" id="stop5315" offset="0"/><stop id="stop5333" offset=".237" style="stop-color:#3969a8;stop-opacity:1"/><stop id="stop5317" offset=".547" style="stop-color:#4f7eba;stop-opacity:1"/><stop style="stop-color:#96b6d7;stop-opacity:1" id="stop5321" offset=".746"/><stop id="stop5331" offset=".873" style="stop-color:#a0bddc;stop-opacity:1"/><stop style="stop-color:#729fcf;stop-opacity:1" id="stop5319" offset="1"/></linearGradient><linearGradient id="linearGradient5335"><stop id="stop5337" offset="0" style="stop-color:#fff;stop-opacity:1"/><stop id="stop5339" offset="1" style="stop-color:#fff;stop-opacity:0"/></linearGradient><linearGradient id="linearGradient1731"><stop style="stop-color:#b8d67a;stop-opacity:1" id="stop1733" offset="0"/><stop style="stop-color:#789e2d;stop-opacity:1" id="stop1735" offset="1"/></linearGradient><linearGradient id="linearGradient3533"><stop style="stop-color:#729fcf;stop-opacity:1" id="stop3535" offset="0"/><stop style="stop-color:#3465a4;stop-opacity:1" id="stop3545" offset="1"/></linearGradient><linearGradient id="linearGradient3266"><stop id="stop3268" offset="0" style="stop-color:#204a87;stop-opacity:1"/><stop id="stop3270" offset="1" style="stop-color:#204a87;stop-opacity:0"/></linearGradient><linearGradient id="linearGradient3319"><stop id="stop3321" offset="0" style="stop-color:#fff;stop-opacity:0"/><stop style="stop-color:#fff;stop-opacity:.14383562" id="stop3323" offset=".574"/><stop id="stop3325" offset="1" style="stop-color:#fff;stop-opacity:0"/></linearGradient><linearGradient id="linearGradient5252"><stop style="stop-color:#fed496;stop-opacity:1" id="stop5256" offset="0"/><stop style="stop-color:#fcaf3e;stop-opacity:1" id="stop5254" offset="1"/></linearGradient><linearGradient id="linearGradient11223" x1="4.191" x2="47.32" y1="11.113" y2="56.052" gradientUnits="userSpaceOnUse"><stop style="stop-color:#fff;stop-opacity:1" id="stop11225" offset="0"/><stop style="stop-color:#fff;stop-opacity:0" id="stop11227" offset="1"/></linearGradient><linearGradient id="linearGradient3690"><stop style="stop-color:white;stop-opacity:1" id="stop3692" offset="0"/><stop style="stop-color:white;stop-opacity:.46875" id="stop3694" offset="1"/></linearGradient><linearGradient id="linearGradient3674"><stop style="stop-color:#555753;stop-opacity:1" id="stop3676" offset="0"/><stop style="stop-color:#888a85;stop-opacity:1" id="stop3678" offset="1"/></linearGradient><linearGradient id="linearGradient2781"><stop style="stop-color:#d3d7cf;stop-opacity:1" id="stop2783" offset="0"/><stop style="stop-color:#eeeeec;stop-opacity:1" id="stop2785" offset="1"/></linearGradient><linearGradient id="linearGradient51765"><stop style="stop-color:#000;stop-opacity:1" id="stop51767" offset="0"/><stop style="stop-color:#000;stop-opacity:0" id="stop51769" offset="1"/></linearGradient><linearGradient id="linearGradient47870"><stop style="stop-color:#000;stop-opacity:0" id="stop47872" offset="0"/><stop style="stop-color:#000;stop-opacity:1" id="stop47878" offset=".5"/><stop style="stop-color:#000;stop-opacity:0" id="stop47874" offset="1"/></linearGradient><linearGradient id="linearGradient2378"><stop style="stop-color:#fff;stop-opacity:1" id="stop2380" offset="0"/><stop id="stop4146" offset=".25" style="stop-color:#fefede;stop-opacity:.91836733"/><stop id="stop2386" offset=".5" style="stop-color:#f5f328;stop-opacity:1"/><stop style="stop-color:#f5f32d;stop-opacity:.12234043" id="stop2382" offset="1"/></linearGradient><radialGradient id="radialGradient8567" cx="11.026" cy="15.747" r="10.982" fx="11.026" fy="15.747" gradientTransform="matrix(1,0,0,0.4889336,0,8.0475196)" gradientUnits="userSpaceOnUse" xlink:href="#linearGradient3383"/><linearGradient id="linearGradient3383"><stop id="stop3385" offset="0" style="stop-color:#000;stop-opacity:1"/><stop id="stop3387" offset="1" style="stop-color:#000;stop-opacity:0"/></linearGradient><radialGradient id="radialGradient2766" cx="6.484" cy="-3.123" r="15.177" fx="6.484" fy="-3.123" gradientTransform="matrix(-0.9906918,0.9838734,-0.9873672,-0.9911854,14.34067,-13.780844)" gradientUnits="userSpaceOnUse" xlink:href="#linearGradient2760"/><linearGradient id="linearGradient2760"><stop id="stop2762" offset="0" style="stop-color:#fff6aa;stop-opacity:1"/><stop style="stop-color:#fce94f;stop-opacity:1" id="stop1884" offset=".564"/><stop id="stop2764" offset="1" style="stop-color:#fcaf3e;stop-opacity:1"/></linearGradient><linearGradient id="linearGradient7955" x1="11.001" x2="11.001" y1="-7.577" y2="21.047" gradientUnits="userSpaceOnUse" xlink:href="#linearGradient7948"/><linearGradient id="linearGradient7948"><stop id="stop7950" offset="0" style="stop-color:#c4a000;stop-opacity:1"/><stop id="stop7953" offset="1" style="stop-color:#ce5c00;stop-opacity:1"/></linearGradient><linearGradient id="linearGradient7956" x1="11" x2="11" y1="-7.062" y2="20.587" gradientUnits="userSpaceOnUse" xlink:href="#linearGradient7950"/><linearGradient id="linearGradient7950"><stop id="stop7952" offset="0" style="stop-color:#fff;stop-opacity:1"/><stop id="stop7954" offset="1" style="stop-color:#fff;stop-opacity:0"/></linearGradient><radialGradient id="radialGradient3080" cx="6.703" cy="73.616" r="7.228" fx="6.703" fy="73.616" gradientTransform="scale(1.902215,0.525703)" gradientUnits="userSpaceOnUse" xlink:href="#linearGradient10691"/><linearGradient id="linearGradient10691"><stop style="stop-color:#000;stop-opacity:1" id="stop10693" offset="0"/><stop style="stop-color:#000;stop-opacity:0" id="stop10695" offset="1"/></linearGradient><radialGradient id="radialGradient2707" cx="62.202" cy="-5.713" r="9.755" fx="62.202" fy="-5.713" gradientTransform="matrix(-7.565785,-6.219707e-7,3.9644633e-7,-4.8230546,494.60904,-26.555114)" gradientUnits="userSpaceOnUse" xlink:href="#linearGradient5106"/><linearGradient id="linearGradient5106"><stop id="stop5108" offset="0" style="stop-color:#8fb3d9;stop-opacity:1"/><stop style="stop-color:#729fcf;stop-opacity:1" id="stop8208" offset=".253"/><stop id="stop8210" offset=".683" style="stop-color:#3465a4;stop-opacity:1"/><stop id="stop5110" offset="1" style="stop-color:#204a87;stop-opacity:1"/></linearGradient><linearGradient id="linearGradient3927" x1="15.047" x2="15.047" y1="44.788" y2="3.885" gradientTransform="matrix(1.0805272,0,0,1.0805026,-1.5082857,-3.3507598)" gradientUnits="userSpaceOnUse" xlink:href="#linearGradient3811"/><linearGradient id="linearGradient3811"><stop style="stop-color:#204a87;stop-opacity:1" id="stop3813" offset="0"/><stop style="stop-color:#3465a4;stop-opacity:1" id="stop3815" offset="1"/></linearGradient><linearGradient id="linearGradient2704" x1="62.746" x2="62.609" y1="-13.445" y2="7.107" gradientTransform="matrix(2.3440063,0,0,2.3440063,-121.79862,31.22942)" gradientUnits="userSpaceOnUse" xlink:href="#linearGradient4873"/><linearGradient id="linearGradient4873"><stop id="stop4875" offset="0" style="stop-color:#fff;stop-opacity:1"/><stop id="stop4877" offset="1" style="stop-color:#fff;stop-opacity:0"/></linearGradient><radialGradient id="radialGradient2949" cx="17.62" cy="21.611" r="8" fx="17.62" fy="21.611" gradientTransform="matrix(8.2058966,0,0,5.6072569,-97.6306,-129.8057)" gradientUnits="userSpaceOnUse" xlink:href="#linearGradient2660"/><radialGradient id="radialGradient2953" cx="22.75" cy="10.25" r="19.875" fx="22.75" fy="10.25" gradientTransform="matrix(3.2568734,0,0,3.3318864,-31.458385,-57.380604)" gradientUnits="userSpaceOnUse" xlink:href="#linearGradient15653"/><linearGradient id="linearGradient5183" x1="24.001" x2="24.001" y1="60.65" y2=".971" gradientTransform="matrix(2.0021174,0,0,1.9506949,-0.0985049,-46.480945)" gradientUnits="userSpaceOnUse" xlink:href="#linearGradient5177"/><linearGradient id="linearGradient5191" x1="24.001" x2="24.001" y1="60.65" y2=".971" gradientTransform="matrix(2.0021174,0,0,1.9506949,-0.0985049,-46.480945)" gradientUnits="userSpaceOnUse" xlink:href="#linearGradient5185"/><linearGradient id="linearGradient3165"><stop id="stop3167" offset="0" style="stop-color:#e78181;stop-opacity:1"/><stop style="stop-color:#e15f5f;stop-opacity:1" id="stop8599" offset=".25"/><stop id="stop8601" offset=".68" style="stop-color:#c22f2f;stop-opacity:1"/><stop id="stop3169" offset="1" style="stop-color:#a40000;stop-opacity:1"/></linearGradient><radialGradient id="radialGradient3204" cx="15.313" cy="34.656" r="9.5" fx="15.313" fy="34.656" gradientTransform="matrix(1,0,0,1.003289,0,-0.114001)" gradientUnits="userSpaceOnUse" xlink:href="#linearGradient5185"/><radialGradient id="radialGradient3208" cx="15.313" cy="34.656" r="9.5" fx="15.313" fy="34.656" gradientTransform="matrix(1,0,0,1.003289,0,-0.114001)" gradientUnits="userSpaceOnUse" xlink:href="#linearGradient5185"/><linearGradient id="linearGradient3112" x1="22.965" x2="12.641" y1="35.311" y2="11.424" gradientTransform="matrix(0.965926,-0.258819,0.258819,0.965926,7.28156,0.755642)" gradientUnits="userSpaceOnUse" xlink:href="#linearGradient2903"/><linearGradient id="linearGradient2903"><stop id="stop2905" offset="0" style="stop-color:#888a85;stop-opacity:1"/><stop id="stop2907" offset="1" style="stop-color:#d3d7cf;stop-opacity:1"/></linearGradient><linearGradient id="linearGradient3114" x1="17.413" x2="17.028" y1="7.871" y2="52.505" gradientTransform="matrix(0.965926,-0.258819,0.258819,0.965926,7.28156,0.755642)" gradientUnits="userSpaceOnUse" xlink:href="#linearGradient5335"/><radialGradient id="radialGradient3116" cx="31" cy="12" r="11.125" fx="31" fy="12" gradientTransform="matrix(0.977466,-0.261911,0.261911,0.977466,-2.444375,8.389657)" gradientUnits="userSpaceOnUse" xlink:href="#linearGradient5185"/><linearGradient id="linearGradient3118" x1="21.788" x2="10.211" y1="21.877" y2="3.423" gradientTransform="matrix(0.909106,-0.243594,0.243594,0.909106,8.676761,1.417073)" gradientUnits="userSpaceOnUse" xlink:href="#linearGradient2895"/><linearGradient id="linearGradient2895"><stop id="stop2897" offset="0" style="stop-color:#d3d7cf;stop-opacity:1"/><stop id="stop2899" offset="1" style="stop-color:#888a85;stop-opacity:1"/></linearGradient><linearGradient id="linearGradient3120" x1="16.488" x2="32.567" y1="13.971" y2="30.758" gradientTransform="matrix(0.965926,-0.258819,0.258819,0.965926,-4.11682,6.729656)" gradientUnits="userSpaceOnUse" xlink:href="#linearGradient5335"/><linearGradient id="linearGradient3122" x1="28.357" x2="17.732" y1="22.795" y2="5.188" gradientTransform="matrix(0.965926,-0.258819,0.258819,0.965926,-4.116824,6.729647)" gradientUnits="userSpaceOnUse" xlink:href="#linearGradient5335"/><linearGradient id="linearGradient3126" x1="17.413" x2="17.028" y1="7.871" y2="52.505" gradientTransform="matrix(0.965926,-0.258819,0.258819,0.965926,7.28156,0.755642)" gradientUnits="userSpaceOnUse" xlink:href="#linearGradient5335"/><radialGradient id="radialGradient3128" cx="31" cy="12" r="11.125" fx="31" fy="12" gradientTransform="matrix(0.977466,-0.261911,0.261911,0.977466,-2.444375,8.389657)" gradientUnits="userSpaceOnUse" xlink:href="#linearGradient5185"/><linearGradient id="linearGradient3132" x1="16.488" x2="32.567" y1="13.971" y2="30.758" gradientTransform="matrix(0.965926,-0.258819,0.258819,0.965926,-4.11682,6.729656)" gradientUnits="userSpaceOnUse" xlink:href="#linearGradient5335"/><linearGradient id="linearGradient3134" x1="28.357" x2="17.732" y1="22.795" y2="5.188" gradientTransform="matrix(0.965926,-0.258819,0.258819,0.965926,-4.116824,6.729647)" gradientUnits="userSpaceOnUse" xlink:href="#linearGradient5335"/><linearGradient id="linearGradient3191" x1="14.496" x2="26.737" y1="29.88" y2="42.564" gradientTransform="translate(-3,1)" gradientUnits="userSpaceOnUse" xlink:href="#linearGradient2895"/><linearGradient id="linearGradient3171" x1="14.375" x2="30.438" y1="31.063" y2="44.063" gradientUnits="userSpaceOnUse" xlink:href="#linearGradient5335"/><radialGradient id="radialGradient3187" cx="42.5" cy="34.5" r="8.688" fx="42.5" fy="34.5" gradientTransform="matrix(1,0,0,0.996403,-26,1.1241)" gradientUnits="userSpaceOnUse" xlink:href="#linearGradient5185"/><linearGradient id="linearGradient3184" x1="16.794" x2="22.053" y1="30.676" y2="37.128" gradientTransform="translate(-3,1)" gradientUnits="userSpaceOnUse" xlink:href="#linearGradient2903"/><linearGradient id="linearGradient3177" x1="20.807" x2="17.449" y1="36.825" y2="30.901" gradientUnits="userSpaceOnUse" xlink:href="#linearGradient3207"/><linearGradient id="linearGradient3109" x1="17.66" x2="23.032" y1="36.68" y2="31.111" gradientUnits="userSpaceOnUse" xlink:href="#linearGradient3207"/><linearGradient id="linearGradient4834" x1="22.965" x2="12.641" y1="35.311" y2="11.424" gradientTransform="matrix(0.965926,-0.258819,0.258819,0.965926,7.28156,0.755642)" gradientUnits="userSpaceOnUse" xlink:href="#linearGradient2903"/><linearGradient id="linearGradient4836" x1="21.788" x2="10.211" y1="21.877" y2="3.423" gradientTransform="matrix(0.909106,-0.243594,0.243594,0.909106,8.676761,1.417073)" gradientUnits="userSpaceOnUse" xlink:href="#linearGradient2895"/></defs><metadata id="metadata7392"/><g id="layer1" transform="translate(0,48)"><g id="g3215" transform="translate(-1.5095767e-4,0)"><g id="g4274" transform="translate(4.0573299,-3.7452276)"><path style="display:block;overflow:visible;visibility:visible;fill:url(#radialGradient2953);fill-opacity:1;fill-rule:nonzero;stroke:#888a85;stroke-width:1.00000012;stroke-linecap:round;stroke-linejoin:round;stroke-miterlimit:4;stroke-dasharray:none;stroke-dashoffset:0;stroke-opacity:1;marker:none" id="path15651" d="M 43.139166,-35.908285 C 28.228374,-25.030067 4.8597,-18.352031 4.8597,-18.352031 c 6.044126,50.230394 39.034981,62.422237 39.034981,62.422237 0,0 32.487177,-12.679517 39.034982,-63.153747 0,0 -28.205922,-9.997312 -39.790497,-16.824744 z"/></g><path style="display:block;overflow:visible;visibility:visible;fill:none;stroke:#fff;stroke-width:1.00000012;stroke-linecap:round;stroke-linejoin:round;stroke-miterlimit:4;stroke-dasharray:none;stroke-dashoffset:0;stroke-opacity:1;marker:none" id="path15665" d="m 47.24569,-38.246358 c -13.973006,10.194054 -36.977077,17.035844 -36.977077,17.035844 5.663993,47.071253 37.69366,60.159904 37.69366,60.159904 0,0 31.53773,-13.583279 37.673719,-60.883034 0,0 -27.534315,-9.91468 -38.390302,-16.312714 z"/><path id="path15667" d="M 46.960754,-34.499009 47.181444,35.15 c 0,0 -26.693965,-14.211471 -34.1112,-54.670007 22.437107,-5.452086 33.89051,-14.979002 33.89051,-14.979002 z" style="display:block;overflow:visible;visibility:visible;fill:url(#radialGradient2949);fill-opacity:1;fill-rule:nonzero;stroke:none;stroke-width:1.00000024;marker:none"/><path style="fill:url(#linearGradient5183);fill-opacity:1;stroke:url(#linearGradient5191);stroke-width:.49999997;stroke-miterlimit:4;stroke-dasharray:none;stroke-opacity:1" id="path3727" d="M 45.109235,39.490238 C 30.333925,31.740958 18.344629,16.25069 12.355674,-3.1140476 10.208051,-10.05819 8.3591916,-19.851302 8.4724194,-22.285793 c 0.1965539,-0.224533 3.0933486,-1.101041 4.6153706,-1.589261 12.323463,-3.953017 24.426077,-9.668032 31.783382,-14.70706 1.203773,-0.824465 2.151404,-1.609372 2.341861,-1.609372 0.190461,0 1.485526,0.842825 2.844205,1.586357 6.008358,3.288047 17.048223,7.900424 31.857531,13.411084 2.748234,1.02264 5.474812,1.901589 5.520655,2.185905 0.09015,0.559072 -0.105119,1.820016 -1.208814,7.748215 -4.088092,21.958042 -15.047085,40.233214 -30.162045,51.336647 -2.159952,1.586701 -7.545206,4.727755 -8.105819,4.720486 -0.165855,-0.0021 -1.319387,-0.504456 -2.849511,-1.30697 z m 6.610693,-1.496214 c 9.731964,-5.709842 19.038984,-16.173234 24.88504,-27.619592 3.073757,-6.018289 6.115207,-14.2151143 7.757205,-21.321654 0.693155,-2.999957 2.250875,-11.424905 2.131434,-11.529544 -0.02971,-0.02602 -3.958778,-1.413436 -8.284781,-3.057602 -10.778864,-4.096678 -18.926986,-7.489806 -25.34742,-10.604268 -2.977743,-1.444461 -5.499757,-2.929742 -5.621333,-2.929742 -0.121569,0 -1.293706,0.936235 -2.284426,1.60849 -7.115762,4.828423 -19.863902,10.951064 -32.157171,14.682754 l -3.3434477,1.014922 0.3273425,1.978462 c 0.2262112,1.936851 1.3195952,8.138644 2.3941172,12.3104453 5.356321,20.7957607 16.97726,37.1199387 32.731857,45.8629687 1.193633,0.662409 2.781834,1.300458 3.094407,1.305171 0.31257,0.0047 2.084461,-0.742879 3.717176,-1.700811 z"/><g id="layer1-3" transform="matrix(1.1444919,0,0,1.1494584,21.161298,-28.884393)"><ellipse id="path3110" cx="15.313" cy="34.656" rx="9.5" ry="9.531" transform="matrix(1.388157,0,0,0.498361,-4.756162,25.47868)" style="opacity:.49019608;fill:url(#radialGradient3204);fill-opacity:1;stroke:none"/><ellipse id="path3206" cx="15.313" cy="34.656" rx="9.5" ry="9.531" transform="matrix(1.473683,0,0,0.655738,10.43425,15.52458)" style="opacity:.24705882;fill:url(#radialGradient3208);fill-opacity:1;stroke:none"/><g id="g2904" transform="matrix(0.965926,0.258819,-0.258819,0.965926,6.16213,8.3855)"><path style="fill:url(#linearGradient4834);fill-opacity:1;stroke:#2e3436;stroke-width:.50163066;stroke-linecap:square;stroke-linejoin:miter;stroke-miterlimit:4;stroke-dasharray:none;stroke-opacity:1" id="path2779" d="m 31,0.5 c -0.561936,2e-8 -1.1158,0.047001 -1.65625,0.125 L 29.125,3.71875 C 28.16536,3.9344947 27.275486,4.3022815 26.46875,4.8125 L 24.125,2.78125 C 22.999999,3.5000009 22.5,4 21.78125,5.125 L 23.8125,7.46875 C 23.302281,8.2754859 22.934495,9.1653595 22.71875,10.125 L 19.625,10.34375 C 19.547,10.8842 19.5,11.438062 19.5,12 c -1e-6,0.561939 0.047,1.115801 0.125,1.65625 l 3.09375,0.21875 c 0.215745,0.959641 0.583531,1.849514 1.09375,2.65625 L 21.78125,18.875 C 22.5,19.999999 23,20.5 24.125,21.21875 l 2.34375,-2.03125 c 0.806736,0.510219 1.696609,0.878005 2.65625,1.09375 L 29.34375,23.375 C 29.8842,23.453 30.438063,23.5 31,23.5 c 0.561936,0 1.115801,-0.047 1.65625,-0.125 L 32.875,20.28125 c 0.959641,-0.215745 1.849514,-0.583531 2.65625,-1.09375 L 37.875,21.21875 C 39.000002,20.499999 39.5,20 40.21875,18.875 L 38.1875,16.53125 c 0.510219,-0.806736 0.878005,-1.696609 1.09375,-2.65625 L 42.375,13.65625 C 42.453,13.115801 42.499999,12.561939 42.5,12 c 0,-0.561937 -0.047,-1.115801 -0.125,-1.65625 L 39.28125,10.125 C 39.065505,9.1653595 38.697719,8.2754859 38.1875,7.46875 L 40.21875,5.125 C 39.569261,4.0173152 39,3.5 37.875,2.78125 L 35.53125,4.8125 C 34.724514,4.3022815 33.834641,3.9344947 32.875,3.71875 L 32.65625,0.625 C 32.1158,0.54700102 31.561938,0.5 31,0.5 Z m 0,9 c 1.380001,3e-7 2.499999,1.119998 2.5,2.5 10e-7,1.380003 -1.119997,2.5 -2.5,2.5 -1.380002,0 -2.5,-1.119997 -2.5,-2.5 0,-1.380002 1.119998,-2.5 2.5,-2.5 z"/><path style="fill:none;stroke:url(#linearGradient3114);stroke-width:.56544125;stroke-linecap:square;stroke-linejoin:miter;stroke-miterlimit:4;stroke-dasharray:none;stroke-opacity:1" id="path2819" d="m 31.000007,1.437503 c -0.260073,0 -0.522134,0.041957 -0.78125,0.0625 l -0.21875,3.062501 c -1.31703,0.174704 -2.521711,0.702045 -3.531252,1.468751 l -2.3125,-1.968751 C 23.765212,4.40014 23.400139,4.765213 23.062504,5.156255 l 1.968751,2.312501 c -0.766706,1.009539 -1.294048,2.214221 -1.468751,3.53125 l -3.0625,0.218751 c -0.02054,0.259116 -0.0625,0.521176 -0.0625,0.78125 0,0.260073 0.04196,0.522133 0.0625,0.78125 l 3.062501,0.21875 c 0.174704,1.317029 0.702045,2.521711 1.468751,3.531251 l -1.968751,2.312501 c 0.337635,0.391042 0.702708,0.756115 1.093751,1.09375 l 2.312501,-1.968751 c 1.009539,0.766706 2.214221,1.294048 3.53125,1.468751 l 0.218751,3.062501 c 0.259116,0.02054 0.521177,0.0625 0.78125,0.0625 0.260072,0 0.522134,-0.04196 0.78125,-0.0625 l 0.21875,-3.062501 c 1.317029,-0.174704 2.521711,-0.702045 3.531251,-1.468751 l 2.312501,1.968751 c 0.391043,-0.337635 0.756115,-0.702708 1.09375,-1.093751 l -1.968751,-2.3125 c 0.766706,-1.00954 1.294048,-2.214222 1.468751,-3.531251 l 3.062501,-0.21875 c 0.02054,-0.259116 0.0625,-0.521177 0.0625,-0.781251 10e-7,-0.260072 -0.04196,-0.522133 -0.0625,-0.781249 L 38.43751,11.000007 C 38.262806,9.682977 37.735464,8.478296 36.968758,7.468755 L 38.937509,5.156254 C 38.599875,4.765213 38.234802,4.400139 37.843759,4.062504 L 35.531258,6.031255 C 34.521719,5.264549 33.317037,4.737207 32.000008,4.562504 L 31.781257,1.500003 C 31.522141,1.47946 31.26008,1.437504 31.000007,1.437503 Z"/><path style="opacity:.8;fill:url(#radialGradient3116);fill-opacity:1;stroke:none" id="path2875" d="m 31,0.875 c -0.32102,2e-8 -0.583975,0.0443823 -0.8125,0.0625 l -0.5,0.03125 -0.03125,0.5 -0.1875,2.65625 C 28.408658,4.3340559 27.427074,4.7655265 26.5625,5.34375 L 24.15625,3.3125 22.3125,5.15625 24.34375,7.5625 C 23.765526,8.427073 23.334055,9.408658 23.125,10.46875 l -2.65625,0.1875 -0.5,0.03125 -0.03125,0.5 C 19.919381,11.416028 19.875,11.678982 19.875,12 c 0,0.321017 0.04438,0.583973 0.0625,0.8125 l 0.03125,0.5 0.5,0.03125 2.65625,0.1875 c 0.209056,1.060092 0.640526,2.041676 1.21875,2.90625 l -1.71875,2.03125 -0.3125,0.375 0.3125,0.375 c 0.35567,0.411929 0.744319,0.80058 1.15625,1.15625 l 0.375,0.3125 0.375,-0.3125 2.03125,-1.71875 c 0.864573,0.578224 1.846158,1.009695 2.90625,1.21875 l 0.1875,2.65625 0.03125,0.5 0.5,0.03125 c 0.228528,0.01812 0.491482,0.0625 0.8125,0.0625 0.321018,1e-6 0.583973,-0.04438 0.8125,-0.0625 l 0.5,-0.03125 0.03125,-0.5 0.1875,-2.65625 c 1.060091,-0.209056 2.041676,-0.640526 2.90625,-1.21875 l 2.03125,1.71875 0.375,0.3125 0.375,-0.3125 c 0.411933,-0.355671 0.80058,-0.74432 1.15625,-1.15625 l 0.3125,-0.375 -0.3125,-0.375 -1.71875,-2.03125 c 0.578224,-0.864573 1.009695,-1.846158 1.21875,-2.90625 l 2.65625,-0.1875 0.5,-0.03125 0.03125,-0.5 C 42.080617,12.583975 42.125,12.321018 42.125,12 c -10e-7,-0.321015 -0.04438,-0.583972 -0.0625,-0.8125 l -0.03125,-0.5 -0.5,-0.03125 -2.65625,-0.1875 C 38.665945,9.4086575 38.234474,8.4270738 37.65625,7.5625 L 39.375,5.53125 39.6875,5.15625 39.375,4.78125 C 39.019332,4.3693213 38.630681,3.9806704 38.21875,3.625 l -0.375,-0.3125 -0.375,0.3125 -2.03125,1.71875 C 34.572927,4.7655263 33.591342,4.3340554 32.53125,4.125 l -0.1875,-2.65625 -0.03125,-0.5 -0.5,-0.03125 C 31.583973,0.91938221 31.321016,0.87500123 31,0.875 Z M 31,8.5 c 1.932001,-2.4e-6 3.499998,1.567999 3.5,3.5 2e-6,1.932002 -1.567999,3.499998 -3.5,3.5 -1.932002,2e-6 -3.499998,-1.567999 -3.5,-3.5 -1e-6,-1.932002 1.567999,-3.4999978 3.5,-3.5 z"/><path style="fill:url(#linearGradient4836);fill-opacity:1;stroke:none" id="path2867" d="m 31,4 c -4.415997,0 -8,3.584 -8,8 0,4.416001 3.584001,8.000001 8,8 4.415999,0 8,-3.583999 8,-8 -10e-7,-4.416 -3.584,-8 -8,-8 z m 0,5 c 1.655999,-1.8e-6 2.999998,1.344006 3,3 2e-6,1.655994 -1.344001,2.999998 -3,3 -1.656,2e-6 -2.999998,-1.344006 -3,-3 -1e-6,-1.655994 1.344001,-2.9999981 3,-3 z"/><circle style="fill:none;stroke:url(#linearGradient3120);stroke-width:.56544107;stroke-linecap:square;stroke-linejoin:miter;stroke-miterlimit:4;stroke-dasharray:none;stroke-opacity:1" id="path2849" cx="23.5" cy="19" r="8.5" transform="matrix(0.882353,-1.02643e-6,1.02643e-6,0.882353,10.26469,-4.764686)"/><circle style="fill:none;stroke:url(#linearGradient3122);stroke-width:1.21165943;stroke-linecap:square;stroke-linejoin:miter;stroke-miterlimit:4;stroke-dasharray:none;stroke-opacity:1" id="path2835" cx="23.5" cy="19" r="8.5" transform="matrix(0.411765,-4.790003e-7,4.790003e-7,0.411765,21.32353,4.17647)"/></g><g id="g2924" transform="matrix(0.965926,0.258819,-0.258819,0.965926,-6.83787,-6.6145)"><path style="fill:url(#linearGradient3112);fill-opacity:1;stroke:#2e3436;stroke-width:.50163066;stroke-linecap:square;stroke-linejoin:miter;stroke-miterlimit:4;stroke-dasharray:none;stroke-opacity:1" id="path2926" d="m 31,0.5 c -0.561936,2e-8 -1.1158,0.047001 -1.65625,0.125 L 29.125,3.71875 C 28.16536,3.9344947 27.275486,4.3022815 26.46875,4.8125 L 24.125,2.78125 C 22.999999,3.5000009 22.5,4 21.78125,5.125 L 23.8125,7.46875 C 23.302281,8.2754859 22.934495,9.1653595 22.71875,10.125 L 19.625,10.34375 C 19.547,10.8842 19.5,11.438062 19.5,12 c -1e-6,0.561939 0.047,1.115801 0.125,1.65625 l 3.09375,0.21875 c 0.215745,0.959641 0.583531,1.849514 1.09375,2.65625 L 21.78125,18.875 C 22.5,19.999999 23,20.5 24.125,21.21875 l 2.34375,-2.03125 c 0.806736,0.510219 1.696609,0.878005 2.65625,1.09375 L 29.34375,23.375 C 29.8842,23.453 30.438063,23.5 31,23.5 c 0.561936,0 1.115801,-0.047 1.65625,-0.125 L 32.875,20.28125 c 0.959641,-0.215745 1.849514,-0.583531 2.65625,-1.09375 L 37.875,21.21875 C 39.000002,20.499999 39.5,20 40.21875,18.875 L 38.1875,16.53125 c 0.510219,-0.806736 0.878005,-1.696609 1.09375,-2.65625 L 42.375,13.65625 C 42.453,13.115801 42.499999,12.561939 42.5,12 c 0,-0.561937 -0.047,-1.115801 -0.125,-1.65625 L 39.28125,10.125 C 39.065505,9.1653595 38.697719,8.2754859 38.1875,7.46875 L 40.21875,5.125 C 39.569261,4.0173152 39,3.5 37.875,2.78125 L 35.53125,4.8125 C 34.724514,4.3022815 33.834641,3.9344947 32.875,3.71875 L 32.65625,0.625 C 32.1158,0.54700102 31.561938,0.5 31,0.5 Z m 0,9 c 1.380001,3e-7 2.499999,1.119998 2.5,2.5 10e-7,1.380003 -1.119997,2.5 -2.5,2.5 -1.380002,0 -2.5,-1.119997 -2.5,-2.5 0,-1.380002 1.119998,-2.5 2.5,-2.5 z"/><path style="fill:none;stroke:url(#linearGradient3126);stroke-width:.56544125;stroke-linecap:square;stroke-linejoin:miter;stroke-miterlimit:4;stroke-dasharray:none;stroke-opacity:1" id="path2928" d="m 31.000007,1.437503 c -0.260073,0 -0.522134,0.041957 -0.78125,0.0625 l -0.21875,3.062501 c -1.31703,0.174704 -2.521711,0.702045 -3.531252,1.468751 l -2.3125,-1.968751 C 23.765212,4.40014 23.400139,4.765213 23.062504,5.156255 l 1.968751,2.312501 c -0.766706,1.009539 -1.294048,2.214221 -1.468751,3.53125 l -3.0625,0.218751 c -0.02054,0.259116 -0.0625,0.521176 -0.0625,0.78125 0,0.260073 0.04196,0.522133 0.0625,0.78125 l 3.062501,0.21875 c 0.174704,1.317029 0.702045,2.521711 1.468751,3.531251 l -1.968751,2.312501 c 0.337635,0.391042 0.702708,0.756115 1.093751,1.09375 l 2.312501,-1.968751 c 1.009539,0.766706 2.214221,1.294048 3.53125,1.468751 l 0.218751,3.062501 c 0.259116,0.02054 0.521177,0.0625 0.78125,0.0625 0.260072,0 0.522134,-0.04196 0.78125,-0.0625 l 0.21875,-3.062501 c 1.317029,-0.174704 2.521711,-0.702045 3.531251,-1.468751 l 2.312501,1.968751 c 0.391043,-0.337635 0.756115,-0.702708 1.09375,-1.093751 l -1.968751,-2.3125 c 0.766706,-1.00954 1.294048,-2.214222 1.468751,-3.531251 l 3.062501,-0.21875 c 0.02054,-0.259116 0.0625,-0.521177 0.0625,-0.781251 10e-7,-0.260072 -0.04196,-0.522133 -0.0625,-0.781249 L 38.43751,11.000007 C 38.262806,9.682977 37.735464,8.478296 36.968758,7.468755 L 38.937509,5.156254 C 38.599875,4.765213 38.234802,4.400139 37.843759,4.062504 L 35.531258,6.031255 C 34.521719,5.264549 33.317037,4.737207 32.000008,4.562504 L 31.781257,1.500003 C 31.522141,1.47946 31.26008,1.437504 31.000007,1.437503 Z"/><path style="opacity:.8;fill:url(#radialGradient3128);fill-opacity:1;stroke:none" id="path2930" d="m 31,0.875 c -0.32102,2e-8 -0.583975,0.0443823 -0.8125,0.0625 l -0.5,0.03125 -0.03125,0.5 -0.1875,2.65625 C 28.408658,4.3340559 27.427074,4.7655265 26.5625,5.34375 L 24.15625,3.3125 22.3125,5.15625 24.34375,7.5625 C 23.765526,8.427073 23.334055,9.408658 23.125,10.46875 l -2.65625,0.1875 -0.5,0.03125 -0.03125,0.5 C 19.919381,11.416028 19.875,11.678982 19.875,12 c 0,0.321017 0.04438,0.583973 0.0625,0.8125 l 0.03125,0.5 0.5,0.03125 2.65625,0.1875 c 0.209056,1.060092 0.640526,2.041676 1.21875,2.90625 l -1.71875,2.03125 -0.3125,0.375 0.3125,0.375 c 0.35567,0.411929 0.744319,0.80058 1.15625,1.15625 l 0.375,0.3125 0.375,-0.3125 2.03125,-1.71875 c 0.864573,0.578224 1.846158,1.009695 2.90625,1.21875 l 0.1875,2.65625 0.03125,0.5 0.5,0.03125 c 0.228528,0.01812 0.491482,0.0625 0.8125,0.0625 0.321018,1e-6 0.583973,-0.04438 0.8125,-0.0625 l 0.5,-0.03125 0.03125,-0.5 0.1875,-2.65625 c 1.060091,-0.209056 2.041676,-0.640526 2.90625,-1.21875 l 2.03125,1.71875 0.375,0.3125 0.375,-0.3125 c 0.411933,-0.355671 0.80058,-0.74432 1.15625,-1.15625 l 0.3125,-0.375 -0.3125,-0.375 -1.71875,-2.03125 c 0.578224,-0.864573 1.009695,-1.846158 1.21875,-2.90625 l 2.65625,-0.1875 0.5,-0.03125 0.03125,-0.5 C 42.080617,12.583975 42.125,12.321018 42.125,12 c -10e-7,-0.321015 -0.04438,-0.583972 -0.0625,-0.8125 l -0.03125,-0.5 -0.5,-0.03125 -2.65625,-0.1875 C 38.665945,9.4086575 38.234474,8.4270738 37.65625,7.5625 L 39.375,5.53125 39.6875,5.15625 39.375,4.78125 C 39.019332,4.3693213 38.630681,3.9806704 38.21875,3.625 l -0.375,-0.3125 -0.375,0.3125 -2.03125,1.71875 C 34.572927,4.7655263 33.591342,4.3340554 32.53125,4.125 l -0.1875,-2.65625 -0.03125,-0.5 -0.5,-0.03125 C 31.583973,0.91938221 31.321016,0.87500123 31,0.875 Z M 31,8.5 c 1.932001,-2.4e-6 3.499998,1.567999 3.5,3.5 2e-6,1.932002 -1.567999,3.499998 -3.5,3.5 -1.932002,2e-6 -3.499998,-1.567999 -3.5,-3.5 -1e-6,-1.932002 1.567999,-3.4999978 3.5,-3.5 z"/><path style="fill:url(#linearGradient3118);fill-opacity:1;stroke:none" id="path2932" d="m 31,4 c -4.415997,0 -8,3.584 -8,8 0,4.416001 3.584001,8.000001 8,8 4.415999,0 8,-3.583999 8,-8 -10e-7,-4.416 -3.584,-8 -8,-8 z m 0,5 c 1.655999,-1.8e-6 2.999998,1.344006 3,3 2e-6,1.655994 -1.344001,2.999998 -3,3 -1.656,2e-6 -2.999998,-1.344006 -3,-3 -1e-6,-1.655994 1.344001,-2.9999981 3,-3 z"/><circle style="fill:none;stroke:url(#linearGradient3132);stroke-width:.56544107;stroke-linecap:square;stroke-linejoin:miter;stroke-miterlimit:4;stroke-dasharray:none;stroke-opacity:1" id="path2934" cx="23.5" cy="19" r="8.5" transform="matrix(0.882353,-1.02643e-6,1.02643e-6,0.882353,10.26469,-4.764686)"/><circle style="fill:none;stroke:url(#linearGradient3134);stroke-width:1.21165943;stroke-linecap:square;stroke-linejoin:miter;stroke-miterlimit:4;stroke-dasharray:none;stroke-opacity:1" id="path2936" cx="23.5" cy="19" r="8.5" transform="matrix(0.411765,-4.790003e-7,4.790003e-7,0.411765,21.32353,4.17647)"/></g><path id="path2978" d="m 16.15625,26.5 c -0.488396,0.01878 -0.972005,0.09379 -1.4375,0.1875 l -0.03125,0 c -0.34946,0.07157 -0.697793,0.170415 -1.03125,0.28125 -0.482338,0.16032 -0.932718,0.35785 -1.375,0.59375 l 0.65625,3.125 c -0.476244,0.352714 -0.924071,0.765183 -1.28125,1.25 L 8.5625,31.3125 c -0.2563974,0.484385 -0.4907769,0.968357 -0.65625,1.5 C 7.676383,33.551032 7.5309966,34.349931 7.5,35.15625 l 3.0625,1.03125 c 0.06964,0.592468 0.201973,1.180691 0.4375,1.71875 l -2.125,2.375 c 0.2776891,0.441317 0.5897247,0.864646 0.9375,1.25 l 0.625,0.59375 c 0.388221,0.355401 0.803922,0.685104 1.25,0.96875 l 2.375,-2.125 c 0.285486,0.127273 0.563555,0.229049 0.875,0.3125 0.294716,0.07897 0.611933,0.154201 0.90625,0.1875 l 1,3.03125 c 0.488396,-0.01877 0.972005,-0.09379 1.4375,-0.1875 l 0.03125,0 c 0.34946,-0.07157 0.697793,-0.170415 1.03125,-0.28125 0.482338,-0.16032 0.932718,-0.35785 1.375,-0.59375 l -0.65625,-3.125 c 0.476244,-0.352713 0.924071,-0.765183 1.28125,-1.25 l 3.09375,0.625 c 0.256397,-0.484385 0.490777,-0.968357 0.65625,-1.5 0.229867,-0.738532 0.375253,-1.537431 0.40625,-2.34375 L 22.4375,34.8125 C 22.367863,34.220032 22.235527,33.631809 22,33.09375 l 2.125,-2.375 c -0.277689,-0.441317 -0.589725,-0.864646 -0.9375,-1.25 L 22.5625,28.875 c -0.388221,-0.355401 -0.803922,-0.685104 -1.25,-0.96875 l -2.375,2.125 c -0.285487,-0.127273 -0.563555,-0.229049 -0.875,-0.3125 -0.294716,-0.07897 -0.611933,-0.154201 -0.90625,-0.1875 l -1,-3.03125 z m 0.125,7 c 0.113509,-0.01267 0.227707,-0.0069 0.34375,0 0.13262,0.0079 0.272952,0.02678 0.40625,0.0625 1.066381,0.285733 1.691987,1.402366 1.40625,2.46875 -0.285736,1.066388 -1.402369,1.691985 -2.46875,1.40625 C 14.902369,37.151767 14.276764,36.035135 14.5625,34.96875 14.781268,34.1523 15.486686,33.588694 16.28125,33.5 Z" style="fill:url(#linearGradient3191);fill-opacity:1;stroke:#2e3436;stroke-width:.49891871;stroke-linecap:round;stroke-linejoin:miter;stroke-miterlimit:4;stroke-dasharray:none;stroke-opacity:1"/><path id="path2995" d="m 18.460938,26.486328 -2.076172,0.556641 0.845703,4.041015 a 0.96888437,0.96888437 0 0 1 -1.146485,1.146485 l -4.072265,-0.845703 -0.558594,2.076172 3.945313,1.30664 a 0.96888437,0.96888437 0 0 1 0.417968,1.564453 l -2.738281,3.070313 1.494141,1.511718 3.095703,-2.761718 a 0.96888437,0.96888437 0 0 1 1.564453,0.417968 l 1.30664,3.945313 2.076172,-0.558594 -0.845703,-4.041015 a 0.96888437,0.96888437 0 0 1 1.146485,-1.146485 l 4.072265,0.845703 0.558594,-2.076172 -3.945313,-1.30664 a 0.96888437,0.96888437 0 0 1 -0.417968,-1.564453 l 2.738281,-3.070313 -1.494141,-1.511718 -3.095703,2.761718 a 0.96888437,0.96888437 0 0 1 -1.564453,-0.417968 l -1.30664,-3.94336 z" transform="translate(-3,1)" style="fill:none;stroke:url(#linearGradient3171);stroke-width:.49891871;stroke-linecap:round;stroke-linejoin:miter;stroke-miterlimit:4;stroke-dasharray:none;stroke-opacity:1"/><path id="path2999" d="m 15.78125,26.84375 -3,0.875 0.9375,4.46875 c 0.02725,0.151628 -0.01606,0.297315 -0.125,0.40625 -0.108934,0.108935 -0.254622,0.152253 -0.40625,0.125 l -4.5,-0.9375 -0.875,3 L 12.25,36.25 c 0.1491,0.05135 0.241569,0.191131 0.28125,0.34375 0.03968,0.152617 0.01146,0.288785 -0.09375,0.40625 l -3.03125,3.4375 2.125,2.15625 L 15,39.53125 c 0.117466,-0.105209 0.253631,-0.133431 0.40625,-0.09375 0.152619,0.03968 0.292404,0.13215 0.34375,0.28125 l 1.46875,4.4375 3,-0.875 -0.9375,-4.46875 c -0.02725,-0.151628 0.01607,-0.297315 0.125,-0.40625 0.108935,-0.108935 0.254624,-0.152253 0.40625,-0.125 l 4.5,0.9375 0.875,-3 L 20.75,34.75 C 20.6009,34.698654 20.508431,34.558869 20.46875,34.40625 20.42907,34.253633 20.457292,34.117465 20.5625,34 l 3.03125,-3.4375 -2.125,-2.15625 L 18,31.46875 C 17.882534,31.573959 17.746369,31.602181 17.59375,31.5625 17.441131,31.52282 17.301346,31.43035 17.25,31.28125 l -1.46875,-4.4375 z M 16.5,32.5 c 1.655998,-10e-7 3,1.344 3,3 1e-6,1.656001 -1.344002,3 -3,3 -1.655998,10e-7 -3,-1.344 -3,-3 0,-1.655999 1.344002,-3 3,-3 z" style="opacity:.9372549;fill:url(#radialGradient3187);fill-opacity:1;stroke:none"/><path id="path3002" d="m 16.5,30 c -3.036,0 -5.5,2.464002 -5.5,5.5 0,3.036 2.464,5.499998 5.5,5.5 C 19.536,41 22,38.536002 22,35.5 22,32.464 19.536,30 16.5,30 Z m 0,3 c 1.379997,0 2.499999,1.120001 2.5,2.5 0,1.379998 -1.120002,2.500001 -2.5,2.5 -1.379997,0 -2.499999,-1.120002 -2.5,-2.5 0,-1.379998 1.120003,-2.499999 2.5,-2.5 z" style="fill:url(#linearGradient3184);fill-opacity:1;stroke:none"/><circle id="path3033" cx="19.556" cy="34.587" r="3.16" transform="matrix(0.949401,0,0,0.949402,-2.066417,2.662986)" style="fill:none;stroke:url(#linearGradient3177);stroke-width:.52550876;stroke-linecap:round;stroke-linejoin:miter;stroke-miterlimit:4;stroke-dasharray:none;stroke-opacity:1"/><circle id="path3037" cx="19.556" cy="34.587" r="3.16" transform="matrix(1.582334,0,0,-1.582339,-14.44401,90.22847)" style="fill:none;stroke:url(#linearGradient3109);stroke-width:.31530511;stroke-linecap:round;stroke-linejoin:miter;stroke-miterlimit:4;stroke-dasharray:none;stroke-opacity:1"/></g></g></g></svg>